<?xml version="1.0" standalone="no"?>
<!DOCTYPE svg PUBLIC "-//W3C//DTD SVG 20010904//EN"
 "http://www.w3.org/TR/2001/REC-SVG-20010904/DTD/svg10.dtd">
<svg version="1.0" xmlns="http://www.w3.org/2000/svg"
 width="500.000000pt" height="500.000000pt" viewBox="0 0 500.000000 500.000000"
 preserveAspectRatio="xMidYMid meet">

<g transform="translate(0.000000,500.000000) scale(0.100000,-0.100000)"
fill="#000000" stroke="none">
<path d="M2450 4579 c-64 -17 -120 -41 -120 -50 0 -5 -5 -9 -11 -9 -11 0 -69
-54 -69 -65 0 -4 -9 -18 -20 -32 -11 -14 -20 -33 -20 -42 0 -29 -21 -91 -30
-91 -6 0 -10 5 -10 11 0 7 -11 22 -25 34 -69 65 -171 91 -275 71 -78 -15 -100
-27 -161 -86 -25 -25 -59 -52 -74 -60 -77 -40 -142 -142 -152 -237 -6 -58 23
-160 57 -198 21 -23 55 -232 44 -267 -3 -12 -31 -44 -60 -71 -151 -137 -252
-324 -289 -532 -9 -55 -28 -134 -40 -175 -18 -58 -23 -101 -24 -191 -1 -109 1
-120 28 -175 38 -78 45 -112 28 -133 -23 -26 -57 -148 -57 -201 0 -55 41 -193
65 -216 9 -10 15 -34 15 -67 0 -30 9 -71 20 -96 11 -24 20 -49 20 -55 0 -7 9
-22 20 -34 11 -12 20 -24 20 -27 0 -3 16 -27 36 -55 l36 -50 -29 -1 c-15 -1
-65 -1 -111 1 -53 1 -88 -2 -97 -10 -11 -9 -22 -9 -46 -1 -18 6 -64 11 -104
11 -61 0 -77 -4 -117 -29 -49 -31 -79 -68 -96 -120 -8 -23 -12 -137 -12 -346
l0 -311 30 -47 c17 -27 50 -60 77 -77 42 -27 56 -30 122 -30 54 0 89 6 120 20
54 25 66 25 105 1 21 -14 52 -20 96 -21 138 -4 588 -5 947 -2 l252 3 45 34 45
34 21 -34 c38 -62 104 -111 173 -128 56 -14 68 -14 122 -1 59 15 106 45 117
75 5 13 24 16 96 16 49 0 98 5 108 11 11 6 27 7 43 1 27 -11 561 -6 579 5 6 3
13 2 17 -4 3 -5 41 -10 84 -10 74 0 81 2 124 35 29 22 56 54 69 83 22 46 23
58 26 387 3 328 2 340 -18 367 -11 15 -20 30 -20 33 0 3 -12 17 -27 30 -39 33
-102 49 -170 41 -32 -3 -136 -8 -232 -11 l-173 -6 29 38 c91 118 129 207 142
331 6 51 15 80 28 95 46 50 58 96 58 217 0 119 -3 133 -56 233 -20 38 -20 87
1 87 14 0 50 126 50 174 0 55 -32 152 -68 210 -21 32 -32 66 -37 108 -7 59
-43 176 -70 228 -7 14 -21 42 -31 63 -11 21 -27 47 -36 57 -10 11 -18 23 -18
27 0 4 -31 43 -70 86 -68 76 -70 79 -70 131 0 76 27 246 42 265 57 71 72 204
33 291 -21 47 -94 130 -114 130 -7 0 -34 22 -60 49 -95 97 -185 130 -303 109
-71 -12 -119 -39 -166 -92 -37 -42 -42 -44 -42 -13 -1 39 -25 115 -43 135 -9
10 -17 21 -17 25 0 8 -49 57 -57 57 -4 0 -14 7 -24 16 -16 14 -149 55 -174 53
-5 0 -26 -5 -45 -10z m108 -201 c47 -17 78 -84 62 -133 -11 -33 -1 -87 21
-120 8 -12 46 -79 65 -115 8 -14 32 -44 55 -67 33 -33 50 -43 75 -43 27 0 37
7 61 43 47 70 77 139 79 184 2 51 22 78 70 93 60 20 118 -16 129 -80 l7 -40
47 0 c42 0 52 -4 75 -32 33 -40 33 -81 2 -127 -50 -76 -78 -236 -75 -426 l2
-110 48 -37 c27 -21 67 -61 89 -90 22 -29 44 -57 48 -63 54 -68 122 -274 122
-372 0 -18 8 -37 21 -49 26 -23 69 -110 69 -141 0 -26 -30 -93 -42 -93 -4 0
-15 -17 -24 -37 -20 -48 -13 -142 12 -181 44 -64 57 -107 58 -183 1 -60 -3
-81 -16 -96 -10 -11 -18 -25 -18 -31 0 -7 -5 -12 -10 -12 -6 0 -24 -9 -39 -21
l-29 -21 20 -45 c24 -54 19 -88 -31 -193 -36 -77 -98 -149 -161 -190 -25 -15
-74 -37 -110 -48 -62 -19 -101 -20 -780 -23 l-715 -3 -57 27 c-48 23 -147 108
-184 158 -37 51 -67 136 -67 196 0 42 -4 67 -14 74 -26 23 -53 97 -53 149 0
53 23 118 47 133 7 4 20 21 28 36 13 26 12 33 -10 80 -15 30 -25 69 -25 95 0
33 -5 47 -20 57 -13 9 -21 25 -21 44 -1 157 2 187 21 223 11 20 20 56 20 80 0
78 41 228 83 307 6 11 16 31 24 45 24 48 138 174 185 204 72 47 90 137 63 322
-19 138 -31 181 -60 220 -43 56 -42 97 3 153 15 19 28 23 70 23 52 0 52 0 52
32 0 61 73 105 141 85 46 -14 69 -51 70 -113 0 -23 9 -54 20 -71 10 -16 26
-45 36 -62 9 -18 20 -33 24 -33 4 0 9 -9 12 -20 4 -15 14 -20 38 -20 26 0 41
9 76 48 24 26 43 52 43 59 0 6 4 13 8 15 5 2 30 43 56 91 43 82 46 91 36 122
-8 26 -8 44 1 76 21 69 87 96 167 67z m1457 -3364 c0 -263 -2 -299 -16 -302
-18 -3 -45 54 -79 163 -12 39 -28 90 -36 115 -8 25 -14 52 -14 60 0 8 -9 38
-20 65 l-20 50 2 -225 2 -225 -22 -3 -22 -3 2 292 c2 220 6 293 15 296 14 5
53 -75 76 -157 33 -114 55 -197 67 -253 8 -32 17 -60 22 -63 4 -3 8 105 8 239
0 134 3 247 7 251 24 24 28 -15 28 -300z m-2071 288 c8 -13 -11 -35 -23 -28
-23 14 -49 -6 -70 -54 -19 -43 -21 -68 -21 -227 0 -160 2 -181 20 -211 25 -41
58 -55 99 -39 26 9 31 17 31 43 0 47 -9 64 -35 64 -12 0 -28 7 -35 15 -10 12
-8 16 15 25 69 26 86 7 93 -106 l5 -87 -28 7 c-15 4 -40 2 -55 -4 -43 -18 -92
8 -126 67 l-29 48 0 190 c0 207 5 228 62 281 25 24 86 33 97 16z m895 -20 c36
-27 52 -93 58 -243 6 -139 -3 -212 -33 -274 -20 -42 -4 -115 25 -115 23 0 31
-8 24 -26 -7 -19 -47 -18 -71 4 -12 9 -25 33 -30 52 -5 22 -15 36 -28 39 -34
6 -72 54 -89 114 -14 48 -16 83 -10 205 8 181 20 238 55 258 29 16 64 11 99
-14z m-1189 -17 c22 -22 25 -34 24 -93 0 -42 -7 -79 -17 -99 -16 -30 -16 -36
2 -110 10 -43 25 -96 33 -118 43 -117 44 -135 8 -135 -22 0 -30 19 -30 73 0
23 -9 62 -20 86 -11 24 -20 51 -20 61 0 10 -7 33 -15 51 -13 32 -14 24 -15
-118 0 -146 -1 -153 -20 -153 -20 0 -20 7 -20 296 l0 297 33 -7 c17 -4 43 -18
57 -31z m555 4 c0 -9 -14 -15 -36 -17 l-37 -3 2 -104 1 -104 30 -3 c37 -4 40
-30 5 -38 -25 -6 -25 -7 -28 -128 l-3 -122 46 0 c32 0 45 -4 45 -14 0 -19 -22
-26 -80 -26 l-49 0 -3 278 c-2 152 -1 282 0 289 8 26 107 19 107 -8z m191 17
c0 0 10 -17 22 -37 28 -46 28 -107 2 -159 -11 -22 -20 -51 -20 -64 0 -27 30
-130 61 -210 25 -63 25 -106 2 -106 -14 0 -24 22 -45 108 -58 230 -56 228 -60
52 -3 -147 -4 -155 -23 -155 -20 0 -20 5 -16 285 2 157 6 289 8 293 4 6 65 0
69 -7z m1052 -15 c-2 -9 -15 -17 -31 -19 l-27 -3 0 -105 c0 -103 0 -104 24
-104 27 0 44 -28 21 -35 -8 -3 -22 -7 -30 -10 -12 -4 -15 -26 -15 -125 l0
-120 46 0 c38 0 45 -3 42 -17 -2 -14 -15 -19 -57 -21 -30 -2 -57 0 -62 5 -4 4
-9 134 -10 288 l-4 280 35 5 c47 8 72 1 68 -19z m223 6 c-1 -4 -1 -11 -1 -17
0 -5 -13 -10 -29 -10 l-29 0 2 -105 1 -105 28 0 c35 0 39 -37 5 -42 -22 -3
-23 -7 -26 -125 l-3 -123 46 0 c33 0 45 -4 45 -15 0 -18 -34 -27 -91 -23 l-44
3 -5 275 c-3 151 -4 280 -2 287 6 21 105 21 103 0z m-2598 2 c63 -28 77 -132
27 -205 -26 -40 -28 -45 -12 -53 25 -13 62 -87 69 -136 6 -50 -16 -106 -59
-147 -23 -22 -39 -28 -74 -28 l-44 0 0 283 c0 156 3 287 7 290 10 11 59 8 86
-4z m201 -6 c2 -10 8 -106 12 -213 5 -160 10 -205 27 -250 11 -30 27 -60 36
-67 25 -19 49 -15 56 8 4 12 4 138 0 280 -7 255 -7 259 12 259 20 0 21 -9 27
-257 4 -142 3 -271 -2 -288 -6 -23 -16 -32 -43 -39 -81 -20 -135 49 -155 198
-10 70 -20 327 -15 379 2 15 40 6 45 -10z m1786 -114 c0 -252 41 -429 100
-429 45 0 47 43 24 448 l-7 114 24 -4 c23 -3 24 -6 24 -88 1 -47 5 -159 9
-250 8 -148 7 -170 -8 -202 -28 -59 -95 -63 -141 -10 -48 56 -64 140 -67 355
l-3 197 23 0 c22 0 22 -2 22 -131z"/>
<path d="M2463 4359 c-11 -6 -29 -26 -39 -44 -15 -29 -16 -39 -6 -74 12 -38
11 -44 -18 -97 -16 -31 -30 -60 -30 -65 0 -10 -44 -79 -65 -100 -8 -9 -15 -19
-15 -23 0 -26 -85 -86 -123 -86 -28 0 -66 32 -67 57 0 6 -4 13 -8 15 -4 2 -23
26 -42 53 -27 41 -34 60 -34 103 -1 46 -5 57 -29 78 -35 30 -77 31 -104 2 -31
-34 -36 -63 -19 -97 16 -31 19 -110 7 -166 l-7 -30 -7 27 c-4 15 -4 46 -1 68
12 75 -49 120 -115 85 -28 -14 -31 -20 -31 -66 0 -42 3 -52 20 -56 11 -3 20
-13 20 -22 0 -9 9 -43 19 -76 38 -121 39 -436 3 -449 -51 -17 -173 -138 -224
-222 -62 -101 -108 -251 -108 -348 0 -43 -5 -64 -21 -84 -16 -21 -20 -38 -18
-87 1 -33 -1 -74 -5 -92 -8 -36 7 -73 29 -73 12 0 15 -14 15 -57 0 -32 7 -69
15 -83 38 -66 38 -100 -1 -140 -48 -50 -54 -63 -54 -124 0 -35 6 -71 15 -86 8
-14 17 -33 21 -42 3 -10 15 -20 25 -23 22 -7 24 -18 8 -47 -14 -27 5 -121 32
-160 11 -14 19 -30 19 -35 0 -14 113 -133 126 -133 6 0 17 -6 23 -14 7 -8 44
-22 84 -32 67 -16 113 -16 771 -5 659 11 701 13 739 31 23 11 47 20 54 20 7 0
13 4 13 8 0 4 13 16 29 25 39 23 111 118 139 184 25 59 29 140 8 168 -17 24
-2 75 23 75 26 0 70 54 80 99 11 52 -3 110 -53 206 -30 58 -36 81 -36 133 0
34 4 62 10 62 5 0 13 12 16 27 4 15 18 36 31 46 41 33 25 113 -37 182 -11 12
-23 50 -29 92 -6 39 -15 83 -21 98 -5 14 -10 34 -10 44 0 20 -50 130 -80 176
-11 17 -23 37 -27 45 -6 14 -121 129 -155 156 -12 9 -14 47 -12 190 2 149 6
190 23 244 11 36 21 75 21 87 0 12 8 27 19 32 43 23 36 103 -11 127 -58 30
-115 -20 -103 -90 2 -17 -2 -44 -9 -61 -14 -28 -14 -24 -15 67 -1 55 3 100 9
103 19 12 11 65 -15 90 -50 51 -127 12 -124 -62 2 -44 -55 -163 -100 -212 -45
-48 -101 -40 -167 25 -11 12 -24 28 -28 36 -3 7 -19 33 -35 58 -32 48 -61 105
-81 158 -10 25 -10 38 -1 60 31 74 -55 156 -126 121z m77 -49 c24 -24 25 -47
4 -71 -14 -16 -14 -21 1 -56 9 -21 22 -47 28 -58 6 -11 25 -49 43 -85 74 -145
140 -206 225 -204 45 0 53 4 87 42 21 23 57 79 81 126 35 68 41 88 32 104 -8
15 -6 23 8 36 24 22 44 20 59 -5 11 -18 11 -24 -4 -40 -15 -17 -16 -34 -11
-143 5 -119 16 -166 38 -166 21 0 72 155 63 196 -7 37 18 64 44 47 25 -15 26
-42 3 -64 -11 -11 -23 -32 -26 -47 -3 -15 -15 -63 -27 -107 -16 -62 -21 -114
-22 -227 l-1 -148 -665 0 -665 0 -1 163 c0 138 -4 172 -22 229 -12 37 -22 76
-22 86 0 11 -11 31 -25 46 -29 31 -29 31 -15 57 14 25 42 24 65 -1 17 -19 17
-22 3 -36 -14 -14 -14 -22 -2 -62 7 -26 16 -58 18 -72 3 -14 12 -34 20 -45 28
-38 43 -2 57 131 11 111 10 123 -6 148 -24 36 -8 76 30 76 33 0 55 -41 35 -65
-10 -12 -10 -19 -2 -27 7 -7 12 -20 12 -30 0 -10 4 -18 8 -18 5 0 17 -18 27
-40 10 -22 21 -40 25 -40 4 0 12 -10 17 -22 6 -13 23 -38 38 -55 70 -83 195
-7 297 182 84 154 92 174 74 193 -21 24 -20 50 1 74 21 24 48 23 73 -2z m593
-927 c66 -38 148 -112 197 -178 47 -65 101 -178 111 -235 25 -138 28 -164 22
-191 -3 -16 -9 -29 -14 -29 -5 0 -9 -6 -9 -14 0 -34 11 -34 -1130 -51 -184 -3
-428 -8 -542 -11 l-207 -5 -38 35 c-37 34 -38 36 -37 103 5 199 118 417 274
526 102 71 40 66 723 66 572 1 621 0 650 -16z m301 -739 c25 -9 61 -75 47 -83
-6 -4 -75 -16 -152 -26 -101 -13 -146 -24 -161 -37 -12 -10 -24 -18 -28 -18
-3 0 -15 -8 -26 -17 -23 -21 -50 -38 -82 -55 -23 -12 -43 -9 -127 20 -145 50
-134 49 -283 30 -397 -49 -421 -51 -518 -34 -139 25 -312 54 -396 67 l-76 12
39 40 c21 23 39 45 39 49 0 4 15 8 33 8 30 0 57 -21 85 -67 4 -6 19 -14 34
-18 21 -6 31 -1 50 21 75 90 89 92 151 28 53 -56 68 -54 127 17 36 42 47 49
79 49 28 0 46 -8 75 -35 45 -41 105 -49 128 -17 7 10 26 28 42 40 32 25 76 23
107 -4 8 -8 20 -14 26 -14 6 0 16 -7 23 -15 7 -8 23 -15 36 -15 12 0 29 7 38
15 8 8 18 15 22 15 4 0 16 7 26 17 10 9 36 16 61 17 35 1 50 -5 88 -36 51 -42
90 -49 111 -20 7 10 27 29 45 42 40 29 85 23 143 -19 53 -39 67 -39 108 -1 18
17 37 30 43 30 5 0 9 5 9 10 0 11 11 13 34 4z m-1922 -84 c5 -17 8 -33 5 -37
-6 -5 -77 15 -77 22 0 3 7 20 16 39 15 29 19 32 31 21 8 -8 19 -28 25 -45z
m888 -302 c0 -5 -9 -4 -20 2 -11 6 -20 12 -20 14 0 2 9 2 20 -1 11 -3 20 -9
20 -15z m846 11 c4 -8 -1 -9 -16 -4 -20 6 -22 4 -18 -13 4 -15 2 -19 -8 -15
-8 3 -11 9 -8 14 3 5 -1 9 -8 10 -7 0 -4 4 7 9 28 12 43 12 51 -1z m-1371 -9
c-3 -5 -14 -10 -23 -10 -15 0 -15 2 -2 10 20 13 33 13 25 0z m465 0 c13 -8 13
-10 -2 -10 -9 0 -20 5 -23 10 -8 13 5 13 25 0z m500 6 c0 -2 -7 -7 -16 -10 -8
-3 -12 -2 -9 4 6 10 25 14 25 6z m30 -16 c-6 -11 -16 -20 -23 -20 -7 0 -6 4 3
10 8 5 11 10 5 10 -5 0 -3 5 5 10 21 14 22 13 10 -10z m-943 4 c-3 -3 -12 -4
-19 -1 -8 3 -5 6 6 6 11 1 17 -2 13 -5z m433 -24 c12 -8 11 -10 -7 -10 -13 0
-23 5 -23 10 0 13 11 13 30 0z m-455 -10 c-3 -5 -14 -10 -23 -10 -15 0 -15 2
-2 10 20 13 33 13 25 0z m1098 -30 c-3 -12 -8 -19 -11 -16 -5 6 5 36 12 36 2
0 2 -9 -1 -20z m77 -1 c0 -6 -4 -7 -10 -4 -5 3 -10 11 -10 16 0 6 5 7 10 4 6
-3 10 -11 10 -16z m-870 -29 c0 -13 -1 -13 -10 0 -5 8 -10 22 -10 30 0 13 1
13 10 0 5 -8 10 -22 10 -30z m-150 10 c0 -11 -4 -20 -9 -20 -5 0 -7 9 -4 20 3
11 7 20 9 20 2 0 4 -9 4 -20z m21 -11 c-5 -13 -10 -19 -10 -12 -1 15 10 45 15
40 3 -2 0 -15 -5 -28z m975 -278 c9 -8 36 -15 59 -15 47 -1 76 18 98 63 12 25
16 26 107 29 103 3 131 -5 149 -45 18 -39 14 -55 -42 -172 -25 -51 -90 -111
-155 -143 l-67 -33 -650 -8 c-757 -9 -798 -8 -857 27 -102 60 -180 176 -181
270 -1 77 16 86 172 86 l128 0 11 -50 c11 -47 17 -58 50 -95 30 -33 63 -18
141 65 68 71 80 80 112 80 30 0 48 -10 98 -55 34 -30 70 -55 80 -55 21 0 50
31 75 80 18 35 18 35 88 35 60 0 72 -3 82 -20 26 -45 84 -73 125 -60 10 3 30
23 45 45 l26 39 112 3 113 3 32 -30 c18 -16 40 -36 49 -44z"/>
<path d="M2779 3107 c-85 -71 -38 -206 72 -207 41 0 51 4 78 35 17 20 34 47
37 60 8 32 -12 80 -45 111 -35 32 -105 33 -142 1z m129 -39 c29 -29 2 -66 -39
-53 -31 10 -17 65 16 65 6 0 16 -5 23 -12z"/>
<path d="M2050 3103 c-30 -12 -63 -58 -68 -95 -6 -50 28 -101 79 -118 45 -15
78 -8 118 26 27 23 31 32 31 77 -1 72 -33 109 -98 113 -26 2 -54 1 -62 -3z
m115 -78 c0 -27 -3 -30 -30 -30 -21 0 -31 5 -33 18 -6 33 6 49 35 45 24 -3 28
-8 28 -33z"/>
<path d="M2547 2865 c-29 -62 -92 -64 -114 -4 -9 22 -18 29 -37 29 -30 0 -32
-10 -10 -56 18 -37 69 -74 104 -74 54 0 115 63 108 111 -5 37 -32 34 -51 -6z"/>
<path d="M2755 1258 c-43 -139 -39 -436 8 -495 18 -24 61 -15 75 14 16 35 16
346 1 411 -15 61 -71 108 -84 70z"/>
<path d="M1600 1169 c0 -80 2 -89 15 -75 10 10 15 36 15 84 0 53 -4 71 -15 76
-13 4 -15 -9 -15 -85z"/>
<path d="M2360 1168 c1 -73 3 -89 12 -74 23 40 29 95 14 131 -8 19 -17 35 -20
35 -4 0 -6 -42 -6 -92z"/>
<path d="M1020 1155 c0 -84 2 -95 18 -95 16 0 62 87 62 118 0 24 -41 72 -61
72 -17 0 -19 -8 -19 -95z"/>
<path d="M1028 878 c2 -68 6 -125 8 -127 12 -12 57 24 71 57 13 31 14 47 5 96
-12 64 -34 96 -66 96 -20 0 -21 -4 -18 -122z"/>
</g>
</svg>
